<?xml version="1.0" standalone="no"?><!DOCTYPE svg PUBLIC "-//W3C//DTD SVG 1.1//EN" "http://www.w3.org/Graphics/SVG/1.1/DTD/svg11.dtd"><svg t="1734118948861" class="icon" viewBox="0 0 1024 1024" version="1.1" xmlns="http://www.w3.org/2000/svg" p-id="8965" xmlns:xlink="http://www.w3.org/1999/xlink" width="200" height="200"><path d="M759.7 169.5L461.1 261c-36.3 10.5-65.3 48.2-65.3 84.2v314.6s-21.6-14.7-69.8-7.7c-70.9 10.1-128.2 64.3-128.2 121.2 0 56.9 57.3 91.8 128.2 81.7 70.9-10.1 122.6-62.5 122.6-119.4V431.7c0-25.1 30.4-36 30.4-36l264-82.8s29.3-9.8 29.3 17.1v250.7s-26.9-15.4-75.1-9.8c-70.9 8.9-128.2 62-128.2 118.9 0 56.9 57.3 92.9 128.1 84.5 70.9-8.7 128.2-61.8 128.2-118.7V215.9c-0.3-35.6-29.7-56.5-65.6-46.4z m0 0" fill="#515151" p-id="8966"></path></svg>